<svg width="251" height="207" viewBox="0 0 251 207" fill="none" xmlns="http://www.w3.org/2000/svg">
<path d="M10 1H241C245.971 1 250 5.02944 250 10V81.5V153C250 157.971 245.971 162 241 162H10C5.02944 162 1 157.971 1 153V10C1 5.02944 5.02944 1 10 1Z" fill="#6E4C9A" stroke="#6E4C9A" stroke-width="2"/>
<path d="M103.712 190.768V202H100.976V195.264L98.464 202H96.256L93.728 195.248V202H90.992V190.768H94.224L97.376 198.544L100.496 190.768H103.712ZM114.095 197.392C114.095 197.648 114.08 197.915 114.048 198.192H107.856C107.898 198.747 108.074 199.173 108.384 199.472C108.704 199.76 109.093 199.904 109.552 199.904C110.234 199.904 110.709 199.616 110.976 199.04H113.888C113.738 199.627 113.466 200.155 113.072 200.624C112.688 201.093 112.202 201.461 111.616 201.728C111.029 201.995 110.373 202.128 109.648 202.128C108.773 202.128 107.994 201.941 107.312 201.568C106.629 201.195 106.096 200.661 105.712 199.968C105.328 199.275 105.136 198.464 105.136 197.536C105.136 196.608 105.322 195.797 105.696 195.104C106.08 194.411 106.613 193.877 107.296 193.504C107.978 193.131 108.762 192.944 109.648 192.944C110.512 192.944 111.28 193.125 111.952 193.488C112.624 193.851 113.146 194.368 113.52 195.04C113.904 195.712 114.095 196.496 114.095 197.392ZM111.296 196.672C111.296 196.203 111.136 195.829 110.816 195.552C110.496 195.275 110.096 195.136 109.616 195.136C109.157 195.136 108.768 195.269 108.448 195.536C108.138 195.803 107.946 196.181 107.872 196.672H111.296ZM119.171 202.128C118.392 202.128 117.699 201.995 117.091 201.728C116.483 201.461 116.003 201.099 115.651 200.64C115.299 200.171 115.102 199.648 115.059 199.072H117.763C117.795 199.381 117.939 199.632 118.195 199.824C118.451 200.016 118.766 200.112 119.139 200.112C119.48 200.112 119.742 200.048 119.923 199.92C120.115 199.781 120.211 199.605 120.211 199.392C120.211 199.136 120.078 198.949 119.811 198.832C119.544 198.704 119.112 198.565 118.515 198.416C117.875 198.267 117.342 198.112 116.915 197.952C116.488 197.781 116.12 197.52 115.811 197.168C115.502 196.805 115.347 196.32 115.347 195.712C115.347 195.2 115.486 194.736 115.763 194.32C116.051 193.893 116.467 193.557 117.011 193.312C117.566 193.067 118.222 192.944 118.979 192.944C120.099 192.944 120.979 193.221 121.619 193.776C122.27 194.331 122.643 195.067 122.739 195.984H120.211C120.168 195.675 120.03 195.429 119.795 195.248C119.571 195.067 119.272 194.976 118.899 194.976C118.579 194.976 118.334 195.04 118.163 195.168C117.992 195.285 117.907 195.451 117.907 195.664C117.907 195.92 118.04 196.112 118.307 196.24C118.584 196.368 119.011 196.496 119.587 196.624C120.248 196.795 120.787 196.965 121.203 197.136C121.619 197.296 121.982 197.563 122.291 197.936C122.611 198.299 122.776 198.789 122.787 199.408C122.787 199.931 122.638 200.4 122.339 200.816C122.051 201.221 121.63 201.541 121.075 201.776C120.531 202.011 119.896 202.128 119.171 202.128ZM128.093 202.128C127.314 202.128 126.621 201.995 126.013 201.728C125.405 201.461 124.925 201.099 124.573 200.64C124.221 200.171 124.023 199.648 123.981 199.072H126.685C126.717 199.381 126.861 199.632 127.117 199.824C127.373 200.016 127.687 200.112 128.061 200.112C128.402 200.112 128.663 200.048 128.845 199.92C129.037 199.781 129.133 199.605 129.133 199.392C129.133 199.136 128.999 198.949 128.733 198.832C128.466 198.704 128.034 198.565 127.437 198.416C126.797 198.267 126.263 198.112 125.837 197.952C125.41 197.781 125.042 197.52 124.733 197.168C124.423 196.805 124.269 196.32 124.269 195.712C124.269 195.2 124.407 194.736 124.685 194.32C124.973 193.893 125.389 193.557 125.933 193.312C126.487 193.067 127.143 192.944 127.901 192.944C129.021 192.944 129.901 193.221 130.541 193.776C131.191 194.331 131.565 195.067 131.661 195.984H129.133C129.09 195.675 128.951 195.429 128.717 195.248C128.493 195.067 128.194 194.976 127.821 194.976C127.501 194.976 127.255 195.04 127.085 195.168C126.914 195.285 126.829 195.451 126.829 195.664C126.829 195.92 126.962 196.112 127.229 196.24C127.506 196.368 127.933 196.496 128.509 196.624C129.17 196.795 129.709 196.965 130.125 197.136C130.541 197.296 130.903 197.563 131.213 197.936C131.533 198.299 131.698 198.789 131.709 199.408C131.709 199.931 131.559 200.4 131.261 200.816C130.973 201.221 130.551 201.541 129.997 201.776C129.453 202.011 128.818 202.128 128.093 202.128ZM132.839 197.52C132.839 196.603 133.009 195.797 133.351 195.104C133.703 194.411 134.177 193.877 134.775 193.504C135.372 193.131 136.039 192.944 136.775 192.944C137.404 192.944 137.953 193.072 138.423 193.328C138.903 193.584 139.271 193.92 139.527 194.336V193.072H142.263V202H139.527V200.736C139.26 201.152 138.887 201.488 138.407 201.744C137.937 202 137.388 202.128 136.759 202.128C136.033 202.128 135.372 201.941 134.775 201.568C134.177 201.184 133.703 200.645 133.351 199.952C133.009 199.248 132.839 198.437 132.839 197.52ZM139.527 197.536C139.527 196.853 139.335 196.315 138.951 195.92C138.577 195.525 138.119 195.328 137.575 195.328C137.031 195.328 136.567 195.525 136.183 195.92C135.809 196.304 135.623 196.837 135.623 197.52C135.623 198.203 135.809 198.747 136.183 199.152C136.567 199.547 137.031 199.744 137.575 199.744C138.119 199.744 138.577 199.547 138.951 199.152C139.335 198.757 139.527 198.219 139.527 197.536ZM147.634 192.944C148.263 192.944 148.813 193.072 149.282 193.328C149.762 193.584 150.13 193.92 150.386 194.336V193.072H153.122V201.984C153.122 202.805 152.957 203.547 152.626 204.208C152.306 204.88 151.81 205.413 151.138 205.808C150.477 206.203 149.65 206.4 148.658 206.4C147.335 206.4 146.263 206.085 145.442 205.456C144.621 204.837 144.151 203.995 144.034 202.928H146.738C146.823 203.269 147.026 203.536 147.346 203.728C147.666 203.931 148.061 204.032 148.53 204.032C149.095 204.032 149.543 203.867 149.874 203.536C150.215 203.216 150.386 202.699 150.386 201.984V200.72C150.119 201.136 149.751 201.477 149.282 201.744C148.813 202 148.263 202.128 147.634 202.128C146.898 202.128 146.231 201.941 145.634 201.568C145.037 201.184 144.562 200.645 144.21 199.952C143.869 199.248 143.698 198.437 143.698 197.52C143.698 196.603 143.869 195.797 144.21 195.104C144.562 194.411 145.037 193.877 145.634 193.504C146.231 193.131 146.898 192.944 147.634 192.944ZM150.386 197.536C150.386 196.853 150.194 196.315 149.81 195.92C149.437 195.525 148.978 195.328 148.434 195.328C147.89 195.328 147.426 195.525 147.042 195.92C146.669 196.304 146.482 196.837 146.482 197.52C146.482 198.203 146.669 198.747 147.042 199.152C147.426 199.547 147.89 199.744 148.434 199.744C148.978 199.744 149.437 199.547 149.81 199.152C150.194 198.757 150.386 198.219 150.386 197.536ZM163.517 197.392C163.517 197.648 163.501 197.915 163.469 198.192H157.277C157.32 198.747 157.496 199.173 157.805 199.472C158.125 199.76 158.515 199.904 158.973 199.904C159.656 199.904 160.131 199.616 160.397 199.04H163.309C163.16 199.627 162.888 200.155 162.493 200.624C162.109 201.093 161.624 201.461 161.037 201.728C160.451 201.995 159.795 202.128 159.069 202.128C158.195 202.128 157.416 201.941 156.733 201.568C156.051 201.195 155.517 200.661 155.133 199.968C154.749 199.275 154.557 198.464 154.557 197.536C154.557 196.608 154.744 195.797 155.117 195.104C155.501 194.411 156.035 193.877 156.717 193.504C157.4 193.131 158.184 192.944 159.069 192.944C159.933 192.944 160.701 193.125 161.373 193.488C162.045 193.851 162.568 194.368 162.941 195.04C163.325 195.712 163.517 196.496 163.517 197.392ZM160.717 196.672C160.717 196.203 160.557 195.829 160.237 195.552C159.917 195.275 159.517 195.136 159.037 195.136C158.579 195.136 158.189 195.269 157.869 195.536C157.56 195.803 157.368 196.181 157.293 196.672H160.717ZM168.593 202.128C167.814 202.128 167.121 201.995 166.513 201.728C165.905 201.461 165.425 201.099 165.073 200.64C164.721 200.171 164.523 199.648 164.481 199.072H167.185C167.217 199.381 167.361 199.632 167.617 199.824C167.873 200.016 168.187 200.112 168.561 200.112C168.902 200.112 169.163 200.048 169.345 199.92C169.537 199.781 169.633 199.605 169.633 199.392C169.633 199.136 169.499 198.949 169.233 198.832C168.966 198.704 168.534 198.565 167.937 198.416C167.297 198.267 166.763 198.112 166.337 197.952C165.91 197.781 165.542 197.52 165.233 197.168C164.923 196.805 164.769 196.32 164.769 195.712C164.769 195.2 164.907 194.736 165.185 194.32C165.473 193.893 165.889 193.557 166.433 193.312C166.987 193.067 167.643 192.944 168.401 192.944C169.521 192.944 170.401 193.221 171.041 193.776C171.691 194.331 172.065 195.067 172.161 195.984H169.633C169.59 195.675 169.451 195.429 169.217 195.248C168.993 195.067 168.694 194.976 168.321 194.976C168.001 194.976 167.755 195.04 167.585 195.168C167.414 195.285 167.329 195.451 167.329 195.664C167.329 195.92 167.462 196.112 167.729 196.24C168.006 196.368 168.433 196.496 169.009 196.624C169.67 196.795 170.209 196.965 170.625 197.136C171.041 197.296 171.403 197.563 171.713 197.936C172.033 198.299 172.198 198.789 172.209 199.408C172.209 199.931 172.059 200.4 171.761 200.816C171.473 201.221 171.051 201.541 170.497 201.776C169.953 202.011 169.318 202.128 168.593 202.128Z" fill="#6E4C9A"/>
<path d="M83.9079 75.6461L65.8016 70.7454L60.9008 88.8517L56.6309 104.628C56.3981 105.488 57.3213 106.2 58.0939 105.756L79.0072 93.7524L83.9079 75.6461Z" fill="white"/>
<rect x="46" y="36" width="85" height="58" rx="3" fill="white"/>
<path d="M66.979 55.0625H104.021" stroke="#222222" stroke-width="2" stroke-linecap="round" stroke-linejoin="round"/>
<path d="M66.979 71.1875H93.4373" stroke="#222222" stroke-width="2" stroke-linecap="round" stroke-linejoin="round"/>
<path d="M174.673 99.1257L189.158 94.9073L193.079 110.493L196.383 123.628C196.604 124.507 195.647 125.242 194.89 124.775L178.594 114.711L174.673 99.1257Z" fill="white"/>
<rect width="68" height="49.9241" rx="3" transform="matrix(-1 0 0 1 205 65)" fill="white"/>
<path d="M188.217 81.4082H158.583" stroke="#222222" stroke-width="2" stroke-linecap="round" stroke-linejoin="round"/>
<path d="M188.217 95.288H167.05" stroke="#222222" stroke-width="2" stroke-linecap="round" stroke-linejoin="round"/>
</svg>
