<svg width="251" height="202" viewBox="0 0 251 202" fill="none" xmlns="http://www.w3.org/2000/svg">
<path d="M10 1H241C245.971 1 250 5.02944 250 10V81.5V153C250 157.971 245.971 162 241 162H10C5.02944 162 1 157.971 1 153V10C1 5.02944 5.02944 1 10 1Z" fill="#6E4C9A" stroke="#6E4C9A" stroke-width="2"/>
<path d="M80 97V44C80 41.1997 80 39.7996 80.545 38.73C81.0243 37.7892 81.7892 37.0243 82.73 36.545C83.7996 36 85.1997 36 88 36H110.941C112.499 36 113.277 36 113.985 36.2138C114.611 36.4031 115.194 36.7135 115.701 37.1274C116.274 37.5949 116.708 38.2408 117.578 39.5327L124.555 49.8982C125.425 51.1901 125.86 51.836 126.432 52.3035C126.939 52.7174 127.522 53.0278 128.148 53.2171C128.856 53.4309 129.635 53.4309 131.192 53.4309H160C162.8 53.4309 164.2 53.4309 165.27 53.9759C166.211 54.4552 166.976 55.2201 167.455 56.1609C168 57.2305 168 58.6306 168 61.4309V65.0476M121.067 88.2857H156.267" stroke="white" stroke-width="3" stroke-linecap="round"/>
<path d="M85.8333 117.998L161.717 118C163.796 118 164.835 118 165.719 117.651C166.5 117.344 167.19 116.845 167.727 116.2C168.335 115.47 168.661 114.483 169.313 112.508L181.53 75.5104C182.702 71.9614 183.288 70.1869 182.931 68.7749C182.618 67.5389 181.844 66.4692 180.769 65.7844C179.54 65.0022 177.671 65.0021 173.934 65.002L114.95 65.0002C112.871 65.0001 111.831 65.0001 110.947 65.3486C110.167 65.6563 109.476 66.1555 108.939 66.8001C108.331 67.5302 108.005 68.5174 107.353 70.4919L93.2015 113.352C92.8175 114.515 92.6254 115.096 92.3389 115.574C91.6358 116.745 90.4843 117.577 89.1519 117.878C88.6088 118 87.9964 118 86.7715 118V118C85.1237 118 84.2998 118 83.6266 117.808C81.9654 117.333 80.6669 116.035 80.1923 114.373C80 113.7 80 112.876 80 111.229V94.4431" stroke="white" stroke-width="3"/>
<path d="M173 47H180M180 47H187M180 47V54M180 47V40" stroke="white" stroke-width="2.5" stroke-linecap="round" stroke-linejoin="round"/>
<path d="M104.552 189.384C104.552 190.035 104.403 190.632 104.104 191.176C103.805 191.709 103.347 192.141 102.728 192.472C102.109 192.803 101.341 192.968 100.424 192.968H98.728V197H95.992V185.768H100.424C101.32 185.768 102.077 185.923 102.696 186.232C103.315 186.541 103.779 186.968 104.088 187.512C104.397 188.056 104.552 188.68 104.552 189.384ZM100.216 190.792C100.739 190.792 101.128 190.669 101.384 190.424C101.64 190.179 101.768 189.832 101.768 189.384C101.768 188.936 101.64 188.589 101.384 188.344C101.128 188.099 100.739 187.976 100.216 187.976H98.728V190.792H100.216ZM108.712 189.56C109.032 189.069 109.432 188.685 109.912 188.408C110.392 188.12 110.926 187.976 111.512 187.976V190.872H110.76C110.078 190.872 109.566 191.021 109.224 191.32C108.883 191.608 108.712 192.12 108.712 192.856V197H105.976V188.072H108.712V189.56ZM116.884 197.128C116.009 197.128 115.22 196.941 114.516 196.568C113.823 196.195 113.273 195.661 112.868 194.968C112.473 194.275 112.276 193.464 112.276 192.536C112.276 191.619 112.479 190.813 112.884 190.12C113.289 189.416 113.844 188.877 114.548 188.504C115.252 188.131 116.041 187.944 116.916 187.944C117.791 187.944 118.58 188.131 119.284 188.504C119.988 188.877 120.543 189.416 120.948 190.12C121.353 190.813 121.556 191.619 121.556 192.536C121.556 193.453 121.348 194.264 120.932 194.968C120.527 195.661 119.967 196.195 119.252 196.568C118.548 196.941 117.759 197.128 116.884 197.128ZM116.884 194.76C117.407 194.76 117.849 194.568 118.212 194.184C118.585 193.8 118.772 193.251 118.772 192.536C118.772 191.821 118.591 191.272 118.228 190.888C117.876 190.504 117.439 190.312 116.916 190.312C116.383 190.312 115.94 190.504 115.588 190.888C115.236 191.261 115.06 191.811 115.06 192.536C115.06 193.251 115.231 193.8 115.572 194.184C115.924 194.568 116.361 194.76 116.884 194.76ZM124.368 187.144C123.888 187.144 123.493 187.005 123.184 186.728C122.885 186.44 122.736 186.088 122.736 185.672C122.736 185.245 122.885 184.893 123.184 184.616C123.493 184.328 123.888 184.184 124.368 184.184C124.837 184.184 125.221 184.328 125.52 184.616C125.829 184.893 125.984 185.245 125.984 185.672C125.984 186.088 125.829 186.44 125.52 186.728C125.221 187.005 124.837 187.144 124.368 187.144ZM125.744 198.152C125.744 199.251 125.466 200.04 124.912 200.52C124.357 201.011 123.584 201.256 122.592 201.256H121.52V198.936H122.176C122.474 198.936 122.688 198.877 122.816 198.76C122.944 198.643 123.008 198.451 123.008 198.184V188.072H125.744V198.152ZM136.127 192.392C136.127 192.648 136.111 192.915 136.079 193.192H129.887C129.929 193.747 130.105 194.173 130.415 194.472C130.735 194.76 131.124 194.904 131.583 194.904C132.265 194.904 132.74 194.616 133.007 194.04H135.919C135.769 194.627 135.497 195.155 135.103 195.624C134.719 196.093 134.233 196.461 133.647 196.728C133.06 196.995 132.404 197.128 131.679 197.128C130.804 197.128 130.025 196.941 129.343 196.568C128.66 196.195 128.127 195.661 127.743 194.968C127.359 194.275 127.167 193.464 127.167 192.536C127.167 191.608 127.353 190.797 127.727 190.104C128.111 189.411 128.644 188.877 129.327 188.504C130.009 188.131 130.793 187.944 131.679 187.944C132.543 187.944 133.311 188.125 133.983 188.488C134.655 188.851 135.177 189.368 135.551 190.04C135.935 190.712 136.127 191.496 136.127 192.392ZM133.327 191.672C133.327 191.203 133.167 190.829 132.847 190.552C132.527 190.275 132.127 190.136 131.647 190.136C131.188 190.136 130.799 190.269 130.479 190.536C130.169 190.803 129.977 191.181 129.903 191.672H133.327ZM137.026 192.536C137.026 191.608 137.213 190.797 137.586 190.104C137.97 189.411 138.498 188.877 139.17 188.504C139.853 188.131 140.631 187.944 141.506 187.944C142.626 187.944 143.559 188.237 144.306 188.824C145.063 189.411 145.559 190.237 145.794 191.304H142.882C142.637 190.621 142.162 190.28 141.458 190.28C140.957 190.28 140.557 190.477 140.258 190.872C139.959 191.256 139.81 191.811 139.81 192.536C139.81 193.261 139.959 193.821 140.258 194.216C140.557 194.6 140.957 194.792 141.458 194.792C142.162 194.792 142.637 194.451 142.882 193.768H145.794C145.559 194.813 145.063 195.635 144.306 196.232C143.549 196.829 142.615 197.128 141.506 197.128C140.631 197.128 139.853 196.941 139.17 196.568C138.498 196.195 137.97 195.661 137.586 194.968C137.213 194.275 137.026 193.464 137.026 192.536ZM152.234 194.68V197H150.842C149.85 197 149.076 196.76 148.522 196.28C147.967 195.789 147.69 194.995 147.69 193.896V190.344H146.602V188.072H147.69V185.896H150.426V188.072H152.218V190.344H150.426V193.928C150.426 194.195 150.49 194.387 150.618 194.504C150.746 194.621 150.959 194.68 151.258 194.68H152.234Z" fill="#6E4C9A"/>
</svg>
