<svg width="250" height="209" viewBox="0 0 250 209" fill="none" xmlns="http://www.w3.org/2000/svg">
<path d="M10 1H240C244.971 1 249 5.02944 249 10V81.5V153C249 157.971 244.971 162 240 162H10C5.02944 162 1 157.971 1 153V10C1 5.02944 5.02944 1 10 1Z" fill="#6E4C9A" stroke="#6E4C9A" stroke-width="2"/>
<circle cx="130" cy="45.3334" r="15.75" stroke="#FAFAFA" stroke-width="2.5" stroke-linecap="round"/>
<path d="M140.7 33.3666C142.438 31.6287 144.635 30.4228 147.034 29.8902C149.434 29.3577 151.935 29.5207 154.245 30.3602C156.555 31.1996 158.577 32.6806 160.075 34.6293C161.572 36.578 162.483 38.9135 162.7 41.3617C162.916 43.8098 162.43 46.2689 161.298 48.4502C160.166 50.6316 158.435 52.4447 156.308 53.6767C154.181 54.9087 151.747 55.5083 149.292 55.4054C146.836 55.3024 144.461 54.501 142.445 53.0953" stroke="#FAFAFA" stroke-width="2.5"/>
<path d="M119.3 33.3666C117.606 31.672 115.473 30.4822 113.141 29.9304C110.809 29.3786 108.369 29.4865 106.095 30.2421C103.82 30.9976 101.801 32.371 100.263 34.2086C98.7243 36.0462 97.7275 38.2756 97.3837 40.6473C97.04 43.0191 97.3629 45.4398 98.3162 47.6385C99.2696 49.8372 100.816 51.7274 102.782 53.0975C104.748 54.4677 107.057 55.2638 109.45 55.3968C111.843 55.5298 114.225 54.9945 116.331 53.8507" stroke="#FAFAFA" stroke-width="2.5"/>
<path d="M130 70.8334C157.996 70.8334 160.844 98.2663 161.134 103.849C161.163 104.401 160.719 104.833 160.167 104.833H99.8335C99.2812 104.833 98.8377 104.401 98.8663 103.849C99.1562 98.2664 102.005 70.8334 130 70.8334Z" stroke="#FAFAFA" stroke-width="2.5" stroke-linecap="round"/>
<path d="M172.359 92.4159L171.122 92.5973L171.122 92.5973L172.359 92.4159ZM136.16 71.3201L135.237 70.4773L133.686 72.1761L135.955 72.5532L136.16 71.3201ZM159.361 93.5L158.16 93.8474L158.421 94.75H159.361V93.5ZM149.833 66.4166C157.939 66.4166 163.039 71.4849 166.275 77.4418C169.519 83.4126 170.749 90.053 171.122 92.5973L173.596 92.2346C173.208 89.5889 171.925 82.6047 168.472 76.2483C165.011 69.878 159.228 63.9166 149.833 63.9166V66.4166ZM137.083 72.163C140.165 68.7881 144.275 66.4166 149.833 66.4166V63.9166C143.455 63.9166 138.707 66.6771 135.237 70.4773L137.083 72.163ZM135.955 72.5532C149.861 74.8641 155.691 85.3121 158.16 93.8474L160.561 93.1526C157.969 84.1933 151.645 72.6262 136.365 70.087L135.955 72.5532ZM171.395 92.25H159.361V94.75H171.395V92.25ZM171.122 92.5973C171.109 92.5071 171.141 92.4089 171.201 92.3418C171.259 92.2782 171.333 92.25 171.395 92.25V94.75C172.698 94.75 173.8 93.6236 173.596 92.2346L171.122 92.5973Z" fill="#FAFAFA"/>
<path d="M123.84 71.3201L124.045 72.5532L126.314 72.1761L124.763 70.4773L123.84 71.3201ZM87.6407 92.4159L88.8775 92.5973L88.8775 92.5973L87.6407 92.4159ZM100.639 93.5V94.75H101.579L101.84 93.8474L100.639 93.5ZM110.167 66.4166C115.725 66.4166 119.835 68.7881 122.917 72.163L124.763 70.4773C121.293 66.6771 116.545 63.9166 110.167 63.9166V66.4166ZM88.8775 92.5973C89.2507 90.053 90.4809 83.4126 93.7249 77.4418C96.9615 71.4849 102.061 66.4166 110.167 66.4166V63.9166C100.772 63.9166 94.9894 69.878 91.5282 76.2483C88.0747 82.6047 86.792 89.5888 86.404 92.2346L88.8775 92.5973ZM88.605 92.25C88.6669 92.25 88.7413 92.2782 88.7984 92.3418C88.8588 92.4089 88.8907 92.5071 88.8775 92.5973L86.404 92.2346C86.2002 93.6236 87.3014 94.75 88.605 94.75V92.25ZM100.639 92.25H88.605V94.75H100.639V92.25ZM101.84 93.8474C104.309 85.3121 110.139 74.8641 124.045 72.5532L123.635 70.087C108.355 72.6262 102.031 84.1933 99.4385 93.1526L101.84 93.8474Z" fill="#FAFAFA"/>
<path d="M61.536 185.768L57.552 197H54.128L50.144 185.768H53.056L55.84 194.248L58.64 185.768H61.536ZM64.0555 187.144C63.5755 187.144 63.1808 187.005 62.8715 186.728C62.5728 186.44 62.4235 186.088 62.4235 185.672C62.4235 185.245 62.5728 184.893 62.8715 184.616C63.1808 184.328 63.5755 184.184 64.0555 184.184C64.5248 184.184 64.9088 184.328 65.2075 184.616C65.5168 184.893 65.6715 185.245 65.6715 185.672C65.6715 186.088 65.5168 186.44 65.2075 186.728C64.9088 187.005 64.5248 187.144 64.0555 187.144ZM65.4155 188.072V197H62.6795V188.072H65.4155ZM66.8543 192.52C66.8543 191.603 67.0249 190.797 67.3663 190.104C67.7183 189.411 68.1929 188.877 68.7903 188.504C69.3876 188.131 70.0543 187.944 70.7903 187.944C71.3769 187.944 71.9103 188.067 72.3903 188.312C72.8809 188.557 73.2649 188.888 73.5423 189.304V185.16H76.2783V197H73.5423V195.72C73.2863 196.147 72.9183 196.488 72.4383 196.744C71.9689 197 71.4196 197.128 70.7903 197.128C70.0543 197.128 69.3876 196.941 68.7903 196.568C68.1929 196.184 67.7183 195.645 67.3663 194.952C67.0249 194.248 66.8543 193.437 66.8543 192.52ZM73.5423 192.536C73.5423 191.853 73.3503 191.315 72.9663 190.92C72.5929 190.525 72.1343 190.328 71.5903 190.328C71.0463 190.328 70.5823 190.525 70.1983 190.92C69.8249 191.304 69.6383 191.837 69.6383 192.52C69.6383 193.203 69.8249 193.747 70.1983 194.152C70.5823 194.547 71.0463 194.744 71.5903 194.744C72.1343 194.744 72.5929 194.547 72.9663 194.152C73.3503 193.757 73.5423 193.219 73.5423 192.536ZM86.6736 192.392C86.6736 192.648 86.6576 192.915 86.6256 193.192H80.4336C80.4763 193.747 80.6523 194.173 80.9616 194.472C81.2816 194.76 81.671 194.904 82.1296 194.904C82.8123 194.904 83.287 194.616 83.5536 194.04H86.4656C86.3163 194.627 86.0443 195.155 85.6496 195.624C85.2656 196.093 84.7803 196.461 84.1936 196.728C83.607 196.995 82.951 197.128 82.2256 197.128C81.351 197.128 80.5723 196.941 79.8896 196.568C79.207 196.195 78.6736 195.661 78.2896 194.968C77.9056 194.275 77.7136 193.464 77.7136 192.536C77.7136 191.608 77.9003 190.797 78.2736 190.104C78.6576 189.411 79.191 188.877 79.8736 188.504C80.5563 188.131 81.3403 187.944 82.2256 187.944C83.0896 187.944 83.8576 188.125 84.5296 188.488C85.2016 188.851 85.7243 189.368 86.0976 190.04C86.4816 190.712 86.6736 191.496 86.6736 192.392ZM83.8736 191.672C83.8736 191.203 83.7136 190.829 83.3936 190.552C83.0736 190.275 82.6736 190.136 82.1936 190.136C81.735 190.136 81.3456 190.269 81.0256 190.536C80.7163 190.803 80.5243 191.181 80.4496 191.672H83.8736ZM92.181 197.128C91.3063 197.128 90.517 196.941 89.813 196.568C89.1197 196.195 88.5703 195.661 88.165 194.968C87.7703 194.275 87.573 193.464 87.573 192.536C87.573 191.619 87.7757 190.813 88.181 190.12C88.5863 189.416 89.141 188.877 89.845 188.504C90.549 188.131 91.3383 187.944 92.213 187.944C93.0877 187.944 93.877 188.131 94.581 188.504C95.285 188.877 95.8397 189.416 96.245 190.12C96.6503 190.813 96.853 191.619 96.853 192.536C96.853 193.453 96.645 194.264 96.229 194.968C95.8237 195.661 95.2637 196.195 94.549 196.568C93.845 196.941 93.0557 197.128 92.181 197.128ZM92.181 194.76C92.7037 194.76 93.1463 194.568 93.509 194.184C93.8823 193.8 94.069 193.251 94.069 192.536C94.069 191.821 93.8877 191.272 93.525 190.888C93.173 190.504 92.7357 190.312 92.213 190.312C91.6797 190.312 91.237 190.504 90.885 190.888C90.533 191.261 90.357 191.811 90.357 192.536C90.357 193.251 90.5277 193.8 90.869 194.184C91.221 194.568 91.6583 194.76 92.181 194.76ZM101.231 191.368C101.231 190.259 101.471 189.272 101.951 188.408C102.431 187.533 103.098 186.856 103.951 186.376C104.815 185.885 105.791 185.64 106.879 185.64C108.212 185.64 109.354 185.992 110.303 186.696C111.252 187.4 111.887 188.36 112.207 189.576H109.199C108.975 189.107 108.655 188.749 108.239 188.504C107.834 188.259 107.37 188.136 106.847 188.136C106.004 188.136 105.322 188.429 104.799 189.016C104.276 189.603 104.015 190.387 104.015 191.368C104.015 192.349 104.276 193.133 104.799 193.72C105.322 194.307 106.004 194.6 106.847 194.6C107.37 194.6 107.834 194.477 108.239 194.232C108.655 193.987 108.975 193.629 109.199 193.16H112.207C111.887 194.376 111.252 195.336 110.303 196.04C109.354 196.733 108.212 197.08 106.879 197.08C105.791 197.08 104.815 196.84 103.951 196.36C103.098 195.869 102.431 195.192 101.951 194.328C101.471 193.464 101.231 192.477 101.231 191.368ZM113.339 192.52C113.339 191.603 113.509 190.797 113.851 190.104C114.203 189.411 114.677 188.877 115.275 188.504C115.872 188.131 116.539 187.944 117.275 187.944C117.904 187.944 118.453 188.072 118.923 188.328C119.403 188.584 119.771 188.92 120.027 189.336V188.072H122.763V197H120.027V195.736C119.76 196.152 119.387 196.488 118.907 196.744C118.437 197 117.888 197.128 117.259 197.128C116.533 197.128 115.872 196.941 115.275 196.568C114.677 196.184 114.203 195.645 113.851 194.952C113.509 194.248 113.339 193.437 113.339 192.52ZM120.027 192.536C120.027 191.853 119.835 191.315 119.451 190.92C119.077 190.525 118.619 190.328 118.075 190.328C117.531 190.328 117.067 190.525 116.683 190.92C116.309 191.304 116.123 191.837 116.123 192.52C116.123 193.203 116.309 193.747 116.683 194.152C117.067 194.547 117.531 194.744 118.075 194.744C118.619 194.744 119.077 194.547 119.451 194.152C119.835 193.757 120.027 193.219 120.027 192.536ZM127.478 185.16V197H124.742V185.16H127.478ZM132.197 185.16V197H129.461V185.16H132.197ZM145.026 189.32C144.823 188.947 144.53 188.664 144.146 188.472C143.773 188.269 143.33 188.168 142.818 188.168C141.933 188.168 141.223 188.461 140.69 189.048C140.157 189.624 139.89 190.397 139.89 191.368C139.89 192.403 140.167 193.213 140.722 193.8C141.287 194.376 142.061 194.664 143.042 194.664C143.714 194.664 144.279 194.493 144.738 194.152C145.207 193.811 145.549 193.32 145.762 192.68H142.29V190.664H148.242V193.208C148.039 193.891 147.693 194.525 147.202 195.112C146.722 195.699 146.109 196.173 145.362 196.536C144.615 196.899 143.773 197.08 142.834 197.08C141.725 197.08 140.733 196.84 139.858 196.36C138.994 195.869 138.317 195.192 137.826 194.328C137.346 193.464 137.106 192.477 137.106 191.368C137.106 190.259 137.346 189.272 137.826 188.408C138.317 187.533 138.994 186.856 139.858 186.376C140.722 185.885 141.709 185.64 142.818 185.64C144.162 185.64 145.293 185.965 146.21 186.616C147.138 187.267 147.751 188.168 148.05 189.32H145.026ZM152.494 189.56C152.814 189.069 153.214 188.685 153.694 188.408C154.174 188.12 154.707 187.976 155.294 187.976V190.872H154.542C153.859 190.872 153.347 191.021 153.006 191.32C152.664 191.608 152.494 192.12 152.494 192.856V197H149.758V188.072H152.494V189.56ZM160.665 197.128C159.791 197.128 159.001 196.941 158.297 196.568C157.604 196.195 157.055 195.661 156.649 194.968C156.255 194.275 156.057 193.464 156.057 192.536C156.057 191.619 156.26 190.813 156.665 190.12C157.071 189.416 157.625 188.877 158.329 188.504C159.033 188.131 159.823 187.944 160.697 187.944C161.572 187.944 162.361 188.131 163.065 188.504C163.769 188.877 164.324 189.416 164.729 190.12C165.135 190.813 165.337 191.619 165.337 192.536C165.337 193.453 165.129 194.264 164.713 194.968C164.308 195.661 163.748 196.195 163.033 196.568C162.329 196.941 161.54 197.128 160.665 197.128ZM160.665 194.76C161.188 194.76 161.631 194.568 161.993 194.184C162.367 193.8 162.553 193.251 162.553 192.536C162.553 191.821 162.372 191.272 162.009 190.888C161.657 190.504 161.22 190.312 160.697 190.312C160.164 190.312 159.721 190.504 159.369 190.888C159.017 191.261 158.841 191.811 158.841 192.536C158.841 193.251 159.012 193.8 159.353 194.184C159.705 194.568 160.143 194.76 160.665 194.76ZM175.605 188.072V197H172.869V195.784C172.592 196.179 172.213 196.499 171.733 196.744C171.264 196.979 170.741 197.096 170.165 197.096C169.482 197.096 168.88 196.947 168.357 196.648C167.834 196.339 167.429 195.896 167.141 195.32C166.853 194.744 166.709 194.067 166.709 193.288V188.072H169.429V192.92C169.429 193.517 169.584 193.981 169.893 194.312C170.202 194.643 170.618 194.808 171.141 194.808C171.674 194.808 172.096 194.643 172.405 194.312C172.714 193.981 172.869 193.517 172.869 192.92V188.072H175.605ZM180.306 189.336C180.573 188.92 180.941 188.584 181.41 188.328C181.879 188.072 182.429 187.944 183.058 187.944C183.794 187.944 184.461 188.131 185.058 188.504C185.655 188.877 186.125 189.411 186.466 190.104C186.818 190.797 186.994 191.603 186.994 192.52C186.994 193.437 186.818 194.248 186.466 194.952C186.125 195.645 185.655 196.184 185.058 196.568C184.461 196.941 183.794 197.128 183.058 197.128C182.439 197.128 181.89 197 181.41 196.744C180.941 196.488 180.573 196.157 180.306 195.752V201.256H177.57V188.072H180.306V189.336ZM184.21 192.52C184.21 191.837 184.018 191.304 183.634 190.92C183.261 190.525 182.797 190.328 182.242 190.328C181.698 190.328 181.234 190.525 180.85 190.92C180.477 191.315 180.29 191.853 180.29 192.536C180.29 193.219 180.477 193.757 180.85 194.152C181.234 194.547 181.698 194.744 182.242 194.744C182.786 194.744 183.25 194.547 183.634 194.152C184.018 193.747 184.21 193.203 184.21 192.52Z" fill="#6E4C9A"/>
</svg>
